<?xml version="1.0" encoding="UTF-8" standalone="no"?>
<!-- Created with Inkscape (http://www.inkscape.org/) -->

<svg
   width="152.29883mm"
   height="72.436714mm"
   viewBox="0 0 152.29883 72.436716"
   version="1.1"
   id="svg3765"
   xmlns="http://www.w3.org/2000/svg"
   xmlns:svg="http://www.w3.org/2000/svg">
  <defs
     id="defs3762">
    <filter
       id="colors6733396673"
       x="0"
       y="0"
       width="1"
       height="1">
      <feColorMatrix
         type="matrix"
         values="0 0 0 0 0.265625  0 0 0 0 0.265625  0 0 0 0 0.265625  0 0 0 1 0"
         class="icon-feColorMatrix "
         id="feColorMatrix1095" />
    </filter>
  </defs>
  <g
     id="layer1"
     transform="translate(-23.814427,-62.506285)">
    <path
       d="m 63.540951,101.88717 c 0,3.28083 -3.181225,5.7399 -6.536766,5.7399 -2.901077,0 -5.422403,-1.83652 -5.634069,-4.98039 -0.136959,-1.86765 -2.658282,-1.55637 -2.552449,0.0374 0.236567,4.14618 3.797549,7.25892 8.186518,7.25892 4.563284,0 8.952256,-3.38667 8.921128,-8.05578 V 88.651775 c -0.06848,-0.622549 -0.622549,-1.14549 -1.245097,-1.14549 h -7.775639 c -1.730684,0 -1.730684,2.284754 0,2.284754 h 6.636374 z"
       id="path1069"
       style="color-interpolation-filters:sRGB;fill:#000000;fill-opacity:1;stroke-width:0.622549" />
    <path
       d="m 70.632999,92.972264 c 0,-0.765733 -0.516715,-1.213969 -1.276225,-1.213969 -0.796862,0 -1.245098,0.448236 -1.245098,1.213969 v 9.157696 c 0,4.97417 3.834903,7.74451 7.844118,7.74451 2.695636,0 5.360146,-1.10814 6.605243,-3.62946 v 2.1727 c 0,1.6622 2.483972,1.62485 2.483972,0.0374 V 92.972264 c 0,-0.765733 -0.516715,-1.213969 -1.313579,-1.213969 -0.790636,0 -1.238872,0.448236 -1.238872,1.213969 v 8.018436 c 0,3.76642 -3.150097,6.53054 -6.499413,6.53054 -2.801469,0 -5.360146,-2.21005 -5.360146,-5.39128 z"
       id="path1075"
       style="color-interpolation-filters:sRGB;fill:#000000;fill-opacity:1;stroke-width:0.622549" />
    <path
       d="m 116.16578,108.52354 c 0,0.75951 0.45446,1.20774 1.24509,1.20774 0.75951,0 1.28246,-0.44823 1.28246,-1.20774 v -9.26353 c 0,-4.737597 -4.00922,-7.395882 -7.98731,-7.395882 -3.07539,0 -6.0823,1.487893 -7.3274,4.563285 -1.03966,-3.075392 -4.009217,-4.563285 -7.016128,-4.563285 -2.66451,0 -5.117353,1.108136 -6.499412,3.592108 v -2.384364 c 0,-0.653674 -0.448236,-1.207744 -1.207747,-1.207744 -0.691028,0 -1.245097,0.55407 -1.245097,1.207744 v 15.451668 c 0,1.55637 2.521323,1.5875 2.521323,0 v -7.77564 c 0,-3.872254 3.075392,-6.462056 6.468285,-6.462056 1.070784,0 2.073089,0.236569 2.969559,0.790636 1.587497,1.002305 2.384367,2.907305 2.384367,4.874558 v 8.572502 c 0,0.75951 0.51671,1.20774 1.28245,1.20774 0.75951,0 1.27622,-0.44823 1.27622,-1.20774 v -7.60132 c 0,-3.978092 2.86995,-6.67373 6.49941,-6.67373 2.90108,0 5.28544,2.141569 5.35393,5.117354 z"
       id="path1081"
       style="color-interpolation-filters:sRGB;fill:#000000;fill-opacity:1;stroke-width:0.622549" />
    <path
       fill="#333333"
       d="M 82.685,76.951 54.83,7.841 54.56,7.441 c -2.545,-4.423 -7.1,-7.1 -12.323,-7.1 -5.223,0 -9.77,2.684 -12.316,7.1 L 29.79,7.71 1.928,76.95 c -2.146,4.956 -1.608,10.58 1.207,14.871 2.546,3.885 6.693,6.024 11.247,6.024 h 55.98 c 4.554,0 8.57,-2.008 11.116,-5.762 2.684,-4.147 3.215,-9.908 1.207,-15.132 z M 14.651,63.29 35.945,10.657 c 1.338,-2.277 3.746,-3.615 6.43,-3.615 2.684,0 4.955,1.338 6.431,3.615 L 59.922,38.243 C 49.476,52.305 33.136,61.951 14.652,63.29 Z"
       id="path1089"
       transform="matrix(0.18183869,0,0,0.18183869,122.75873,91.939278)"
       style="mix-blend-mode:normal;color-interpolation-filters:sRGB;fill:#674773;fill-opacity:1;fill-rule:nonzero;stroke:none;stroke-opacity:0.75" />
    <path
       d="m 144.65126,93.209016 c 0,-1.655961 -2.45904,-1.519002 -2.45904,0 v 15.314534 c 0,0.72215 0.52293,1.20773 1.28244,1.20773 0.65367,0 1.24508,-0.48558 1.24508,-1.20773 v -7.8129 c 0,-3.492461 1.51901,-6.325029 5.07995,-6.325029 0.79685,0 1.31356,-0.417103 1.31356,-1.176605 0,-0.796851 -0.51671,-1.20773 -1.31356,-1.20773 -1.97346,0 -4.04653,0.62254 -5.14843,2.938399 z"
       id="path1114"
       style="color-interpolation-filters:sRGB;fill:#000000;fill-opacity:1;stroke-width:0.622541" />
  </g>
</svg>
