<svg xmlns="http://www.w3.org/2000/svg" width="575.618" height="273.777" viewBox="0 0 152.299 72.437">
  <style>
    .text {
      fill: #000;
    }

    .logo {
      fill: #674773;
    }

    html[data-color-mode="dark"] .text {
      fill: #fff;
    }

    @media (prefers-color-scheme: dark) {
      .text {
        fill: #fff;
      }
    }
  </style>

  <path class="text" d="M63.541 101.887c0 3.281-3.181 5.74-6.537 5.74-2.9 0-5.422-1.836-5.634-4.98-.137-1.868-2.658-1.557-2.552.037.236 4.146 3.797 7.259 8.186 7.259 4.563 0 8.952-3.387 8.921-8.056V88.652c-.068-.623-.622-1.146-1.245-1.146h-7.775c-1.731 0-1.731 2.285 0 2.285h6.636zM70.633 92.972c0-.765-.517-1.214-1.276-1.214-.797 0-1.245.449-1.245 1.214v9.158c0 4.974 3.835 7.744 7.844 7.744 2.695 0 5.36-1.108 6.605-3.629v2.173c0 1.662 2.484 1.625 2.484.037V92.972c0-.765-.517-1.214-1.314-1.214-.79 0-1.238.449-1.238 1.214v8.019c0 3.766-3.15 6.53-6.5 6.53-2.801 0-5.36-2.21-5.36-5.391zM116.166 108.524c0 .759.454 1.207 1.245 1.207.76 0 1.282-.448 1.282-1.207V99.26c0-4.738-4.009-7.396-7.987-7.396-3.075 0-6.082 1.488-7.327 4.563-1.04-3.075-4.01-4.563-7.017-4.563-2.664 0-5.117 1.108-6.499 3.592v-2.384c0-.654-.448-1.208-1.208-1.208-.69 0-1.245.554-1.245 1.208v15.452c0 1.556 2.522 1.587 2.522 0v-7.776c0-3.872 3.075-6.462 6.468-6.462 1.07 0 2.073.236 2.97.79 1.587 1.003 2.384 2.908 2.384 4.875v8.573c0 .759.516 1.207 1.282 1.207.76 0 1.276-.448 1.276-1.207v-7.602c0-3.978 2.87-6.674 6.5-6.674 2.9 0 5.285 2.142 5.354 5.118z" style="color-interpolation-filters:sRGB;fill-opacity:1;stroke-width:.622549" transform="translate(-23.814 -62.506)"/>
  <path class="logo" d="M82.685 76.951 54.83 7.841l-.27-.4c-2.545-4.423-7.1-7.1-12.323-7.1-5.223 0-9.77 2.684-12.316 7.1l-.131.269L1.928 76.95C-.218 81.906.32 87.53 3.135 91.821c2.546 3.885 6.693 6.024 11.247 6.024h55.98c4.554 0 8.57-2.008 11.116-5.762 2.684-4.147 3.215-9.908 1.207-15.132zM14.651 63.29l21.294-52.633c1.338-2.277 3.746-3.615 6.43-3.615 2.684 0 4.955 1.338 6.431 3.615l11.116 27.586C49.476 52.305 33.136 61.951 14.652 63.29Z" style="mix-blend-mode:normal;color-interpolation-filters:sRGB;fill-opacity:1;fill-rule:nonzero;stroke:none;stroke-opacity:.75" transform="matrix(.18184 0 0 .18184 98.944 29.433)"/>
  <path class="text" d="M144.651 93.209c0-1.656-2.459-1.519-2.459 0v15.315c0 .722.523 1.207 1.283 1.207.653 0 1.245-.485 1.245-1.207v-7.813c0-3.493 1.519-6.325 5.08-6.325.797 0 1.313-.417 1.313-1.177 0-.797-.516-1.208-1.313-1.208-1.974 0-4.047.623-5.149 2.939z" style="color-interpolation-filters:sRGB;fill-opacity:1;stroke-width:.622541" transform="translate(-23.814 -62.506)"/>
</svg>
