<svg xmlns="http://www.w3.org/2000/svg" width="512" height="512" viewBox="0 0 135.467 135.467"><path fill="#333" d="m142.23 165.164-34.92-86.64-.339-.502c-3.19-5.545-8.901-8.901-15.449-8.901s-12.248 3.365-15.44 8.9l-.164.338-34.93 86.804c-2.69 6.213-2.016 13.264 1.513 18.643 3.192 4.87 8.391 7.552 14.1 7.552h70.18c5.71 0 10.744-2.517 13.936-7.223 3.365-5.2 4.03-12.422 1.513-18.97zm-85.292-17.126 26.696-65.984c1.677-2.855 4.696-4.532 8.061-4.532s6.212 1.677 8.062 4.532l13.936 34.583c-13.096 17.63-33.58 29.722-56.753 31.4z" style="mix-blend-mode:normal;color-interpolation-filters:sRGB;fill:var(--main,#8c7ae6);fill-opacity:1;fill-rule:nonzero;stroke:none;stroke-width:1.25367;stroke-opacity:.75" transform="translate(-23.814 -62.506)"/></svg>
